<?xml version="1.0" encoding="utf-8"?>
<!-- Generator: Adobe Illustrator 22.1.0, SVG Export Plug-In . SVG Version: 6.00 Build 0)  -->
<svg version="1.1" id="Layer_1" xmlns="http://www.w3.org/2000/svg" xmlns:xlink="http://www.w3.org/1999/xlink" x="0px" y="0px"
	 viewBox="0 0 185.3 44.8" style="enable-background:new 0 0 185.3 44.8;" xml:space="preserve">
<style type="text/css">
	.st0{fill-rule:evenodd;clip-rule:evenodd;fill:#0091D0;}
	.st1{font-family:'Poppins-Bold';}
	.st2{font-size:17px;}
	.st3{fill:#0091D0;}
</style>
<g>
	<path class="st0" d="M29.7,4.7c0.2,0.1,0.4,0.2,0.5,0.3c1,0.5,2,1.1,2.9,1.8c1.1,0.7,2.1,1.6,3,2.7c0.9,1,1.6,2.2,2.3,3.5
		c1.3,2.6,2,5.8,2,9.6c0,2.4-0.3,4.6-0.9,6.6c-0.3,0.9-0.6,1.8-1,2.6c-0.7,1.3-1.5,2.5-2.3,3.5c-0.4,0.5-1.4,1.5-2.9,2.8l1.5-1.3
		c-0.5,0.5-1,0.9-1.5,1.3c1.5-2.2,2.4-4.3,2.8-6.5l0.1-0.3c0.2-0.7,0.3-1.4,0.4-2.1c0.7-5.7-1.7-10.4-7.4-14.2
		c-0.2-0.1-0.4-0.3-0.7-0.4c-0.3-0.2-0.5-0.3-0.8-0.5c-3.6-2.1-7.8-3.2-12.6-3.3h-1.5c0-2.5,0.8-4.5,2.4-5.8c0.7-0.6,1.5-1,2.5-1.3
		c3.3-1.1,6.8-0.8,10.5,0.9L29.7,4.7z"/>
	<path class="st0" d="M29,16.4c4.4,3.5,6.4,7.7,6,12.7c-0.1,1.8-0.6,3.6-1.3,5.6c-1.6,3.9-4.9,6.4-9.7,7.5l-0.4,0.1
		c-5.2,0.9-9.8,0.9-13.9,0c-4-1-6.2-4-6.8-8.9c0-0.2,0-0.4,0-0.6c-0.2-2-0.2-3.9,0-5.9c0.1,0.5,0.6,1.3,1.4,2.2
		c0.4,0.4,0.8,0.8,1.3,1.3c1.6,1.6,3.4,2.7,5.4,3.3c2,0.6,4.2,0.8,6.6,0.7c2.5-0.1,4.1-0.3,4.9-0.6c0.8-0.3,1.4-0.5,1.9-0.7
		c0.5-0.2,1.3-0.7,2.3-1.5c0.8-0.6,1.5-1.4,2.1-2.5c0.2-0.3,0.3-0.6,0.5-1c0.7-1.5,1.1-3.4,1.1-5.6c0-2.3-0.4-4.2-1.1-5.7L29,16.4z"
		/>
	<path class="st0" d="M11.5,2.4C13.7,2,16,2,18.3,2.3c-1.8,0.6-3.2,1.5-4.2,2.6c-1.3,1.5-1.9,3.4-1.9,5.8v21.7
		c-0.6-0.1-1.2-0.3-1.7-0.6c-1.7-0.8-3.2-1.7-4.3-2.7c-2.1-1.9-3.2-4.2-3.5-7c-0.3-3-0.3-6.2-0.1-9.5c0.1-1.2,0.3-2.3,0.7-3.3
		C3.4,8.8,3.7,8.2,4,7.6c0.5-0.8,1-1.5,1.7-2.2c0.2-0.2,0.4-0.4,0.6-0.5c0.6-0.6,1.3-1,2.1-1.4C9.3,3,10.4,2.6,11.5,2.4z"/>
</g>
<text transform="matrix(1 0 0 1 49.375 28.4167)"><tspan x="0" y="0" class="st1 st2">Das</tspan><tspan x="30.9" y="0" class="st3 st1 st2">Marketplace</tspan></text>
</svg>
